<svg xmlns="http://www.w3.org/2000/svg" width="1200" height="675" viewBox="0 0 1200 675">
<defs><linearGradient id="g" x1="0" y1="0" x2="1" y2="1">
<stop offset="0" stop-color="#2f1704"/><stop offset=".55" stop-color="#7a3d0a"/><stop offset="1" stop-color="#ffb347"/>
</linearGradient></defs>
<rect width="1200" height="675" fill="url(#g)"/><circle cx="235" cy="614" r="36" fill="#ffb347" opacity="0.18"/><rect x="481" y="281" width="336" height="117.6" rx="50.4" fill="#fff" opacity="0.08" transform="rotate(16 481 281)"/><rect x="402" y="588" width="268" height="93.8" rx="40.199999999999996" fill="#fff" opacity="0.04" transform="rotate(-16 402 588)"/><circle cx="1151" cy="54" r="165" fill="#ffb347" opacity="0.14"/><rect x="934" y="645" width="212" height="74.19999999999999" rx="31.799999999999997" fill="#fff" opacity="0.13" transform="rotate(25 934 645)"/><rect x="200" y="350" width="134" height="46.9" rx="20.099999999999998" fill="#fff" opacity="0.08" transform="rotate(-27 200 350)"/><circle cx="136" cy="203" r="121" fill="#ffb347" opacity="0.11"/><rect x="642" y="580" width="72" height="25.2" rx="10.799999999999999" fill="#fff" opacity="0.10" transform="rotate(25 642 580)"/><rect x="21" y="75" width="246" height="86.1" rx="36.9" fill="#fff" opacity="0.18" transform="rotate(-19 21 75)"/>
<g opacity=".9"><rect x="96" y="480.25" width="54.54545454545455" height="107" rx="22.72727272727273" fill="#fff" opacity="0.55"/><rect x="177.8181818181818" y="569.25" width="54.54545454545455" height="18" rx="22.72727272727273" fill="#fff" opacity="0.55"/><rect x="259.6363636363636" y="559.25" width="54.54545454545455" height="28" rx="22.72727272727273" fill="#fff" opacity="0.55"/><rect x="341.45454545454544" y="391.25" width="54.54545454545455" height="196" rx="22.72727272727273" fill="#fff" opacity="0.55"/><rect x="423.27272727272725" y="387.25" width="54.54545454545455" height="200" rx="22.72727272727273" fill="#fff" opacity="0.55"/><rect x="505.0909090909091" y="472.25" width="54.54545454545455" height="115" rx="22.72727272727273" fill="#fff" opacity="0.55"/><rect x="586.9090909090909" y="393.25" width="54.54545454545455" height="194" rx="22.72727272727273" fill="#fff" opacity="0.55"/><rect x="668.7272727272727" y="478.25" width="54.54545454545455" height="109" rx="22.72727272727273" fill="#fff" opacity="0.55"/><rect x="750.5454545454545" y="504.25" width="54.54545454545455" height="83" rx="22.72727272727273" fill="#fff" opacity="0.55"/><rect x="832.3636363636364" y="412.25" width="54.54545454545455" height="175" rx="22.72727272727273" fill="#fff" opacity="0.55"/><rect x="914.1818181818182" y="417.25" width="54.54545454545455" height="170" rx="22.72727272727273" fill="#fff" opacity="0.55"/><rect x="996" y="538.25" width="54.54545454545455" height="49" rx="22.72727272727273" fill="#fff" opacity="0.55"/><rect x="1077.8181818181818" y="456.25" width="54.54545454545455" height="131" rx="22.72727272727273" fill="#fff" opacity="0.55"/><rect x="1159.6363636363637" y="529.25" width="54.54545454545455" height="58" rx="22.72727272727273" fill="#fff" opacity="0.55"/></g>
<text x="96" y="108" font-family="system-ui,-apple-system,Segoe UI,Roboto,sans-serif" font-size="51" font-weight="700" fill="#fff" opacity=".95">licznik pobierania</text>
<text x="96" y="607.5" font-family="system-ui,sans-serif" font-size="27" fill="#fff" opacity=".7">demo-img-03 · zapisane lokalnie</text>
</svg>