<svg xmlns="http://www.w3.org/2000/svg" width="1200" height="675" viewBox="0 0 1200 675">
<defs><linearGradient id="g" x1="0" y1="0" x2="1" y2="1">
<stop offset="0" stop-color="#160f2e"/><stop offset=".55" stop-color="#3a2b7a"/><stop offset="1" stop-color="#a78bfa"/>
</linearGradient></defs>
<rect width="1200" height="675" fill="url(#g)"/><circle cx="1155" cy="522" r="190" fill="#a78bfa" opacity="0.20"/><rect x="423" y="305" width="222" height="77.69999999999999" rx="33.3" fill="#fff" opacity="0.04" transform="rotate(1 423 305)"/><rect x="138" y="510" width="306" height="107.1" rx="45.9" fill="#fff" opacity="0.06" transform="rotate(12 138 510)"/><circle cx="757" cy="279" r="99" fill="#a78bfa" opacity="0.17"/><rect x="370" y="516" width="360" height="125.99999999999999" rx="54" fill="#fff" opacity="0.09" transform="rotate(23 370 516)"/><rect x="1130" y="484" width="332" height="116.19999999999999" rx="49.8" fill="#fff" opacity="0.05" transform="rotate(12 1130 484)"/><circle cx="545" cy="490" r="48" fill="#a78bfa" opacity="0.19"/><rect x="770" y="65" width="94" height="32.9" rx="14.1" fill="#fff" opacity="0.04" transform="rotate(5 770 65)"/><rect x="820" y="317" width="180" height="62.99999999999999" rx="27" fill="#fff" opacity="0.04" transform="rotate(5 820 317)"/>
<g opacity=".9"></g>
<text x="96" y="108" font-family="system-ui,-apple-system,Segoe UI,Roboto,sans-serif" font-size="51" font-weight="700" fill="#fff" opacity=".95"></text>
<text x="96" y="607.5" font-family="system-ui,sans-serif" font-size="27" fill="#fff" opacity=".7">demo-img-07 · zapisane lokalnie</text>
</svg>